<?xml version="1.0" encoding="UTF-8" standalone="no"?>
<!-- Created with Inkscape (http://www.inkscape.org/) -->

<svg
   xmlns:dc="http://purl.org/dc/elements/1.1/"
   xmlns:cc="http://creativecommons.org/ns#"
   xmlns:rdf="http://www.w3.org/1999/02/22-rdf-syntax-ns#"
   xmlns:svg="http://www.w3.org/2000/svg"
   xmlns="http://www.w3.org/2000/svg"
   xmlns:sodipodi="http://sodipodi.sourceforge.net/DTD/sodipodi-0.dtd"
   xmlns:inkscape="http://www.inkscape.org/namespaces/inkscape"
   width="283"
   height="300"
   viewBox="0 0 74.877134 79.374996"
   version="1.1"
   id="svg8"
   inkscape:version="0.92.1 r15371"
   sodipodi:docname="logo.svg">
  <defs
     id="defs2" />
  <sodipodi:namedview
     id="base"
     pagecolor="#ffffff"
     bordercolor="#666666"
     borderopacity="1.0"
     inkscape:pageopacity="0.0"
     inkscape:pageshadow="2"
     inkscape:zoom="0.7"
     inkscape:cx="232.28473"
     inkscape:cy="333.79401"
     inkscape:document-units="mm"
     inkscape:current-layer="g4626"
     showgrid="false"
     showguides="true"
     inkscape:guide-bbox="true"
     units="px"
     inkscape:window-width="1366"
     inkscape:window-height="706"
     inkscape:window-x="-8"
     inkscape:window-y="-8"
     inkscape:window-maximized="1" />
  <metadata
     id="metadata5">
    <rdf:RDF>
      <cc:Work
         rdf:about="">
        <dc:format>image/svg+xml</dc:format>
        <dc:type
           rdf:resource="http://purl.org/dc/dcmitype/StillImage" />
        <dc:title></dc:title>
      </cc:Work>
    </rdf:RDF>
  </metadata>
  <g
     inkscape:label="Layer 1"
     inkscape:groupmode="layer"
     id="layer1"
     transform="translate(0,-217.62506)">
    <g
       id="g4491"
       transform="matrix(-1.5163976,-0.3075706,0.34894939,-1.3365816,232.26573,169.48929)"
       style="fill:#d16344;fill-opacity:1;stroke:#ffffff;stroke-opacity:1">
      <g
         id="g4513"
         transform="matrix(0.05531697,1.1218049,-0.89414836,-0.05531697,145.09682,-44.995631)">
        <g
           id="g4626"
           transform="matrix(0.93027063,0.012466,0.012466,0.98157434,-137.99346,-17.741628)">
          <g
             id="g4668">
            <g
               id="g4597"
               transform="translate(0.92982193,-27.371676)">
              <ellipse
                 ry="19.15428"
                 rx="22.424458"
                 transform="rotate(77.040849)"
                 cy="-89.934021"
                 cx="105.71264"
                 id="path4515"
                 style="opacity:1;fill:#2fb8ac;fill-opacity:1;stroke:#ffffff;stroke-width:0.37977916;stroke-miterlimit:4;stroke-dasharray:none;stroke-opacity:1" />
              <g
                 transform="translate(0.68805035,1.011651)"
                 id="g4551">
                <g
                   transform="matrix(1.2758865,0.03757734,0.03757733,1.4305357,-17.04555,16.868324)"
                   id="g4555">
                  <path
                     sodipodi:nodetypes="cc"
                     inkscape:connector-curvature="0"
                     id="path4526"
                     d="M 108.34552,38.373172 C 103.47628,30.074193 90.910422,28.038936 87.203059,41.782718"
                     style="fill:none;stroke:#eaeaea;stroke-width:1.86054623;stroke-linecap:butt;stroke-linejoin:miter;stroke-miterlimit:4;stroke-dasharray:none;stroke-opacity:1" />
                  <path
                     sodipodi:nodetypes="ccsc"
                     inkscape:connector-curvature="0"
                     id="path4535"
                     d="m 108.52288,34.241913 c 1.67094,8.046105 0.8907,4.860443 2.44291,8.151254 -2.44584,-3.589572 -8.96602,-5.130226 -5.89788,-4.193068 4.99666,1.526221 2.41443,-8.179104 3.45497,-3.958186 z"
                     style="fill:#eaeaea;fill-opacity:1;stroke:none;stroke-width:0.19594526px;stroke-linecap:butt;stroke-linejoin:miter;stroke-opacity:1" />
                </g>
                <g
                   style="fill:#eaeaea;fill-opacity:1;stroke:#bdbdbd;stroke-opacity:1"
                   transform="matrix(0.704969,0.0035769,0.0035769,0.71968969,33.680255,67.110533)"
                   id="g4581">
                  <g
                     id="flowRoot4557"
                     style="font-style:normal;font-variant:normal;font-weight:normal;font-stretch:normal;font-size:32px;line-height:25px;font-family:Melbourne;-inkscape-font-specification:Melbourne;letter-spacing:0px;word-spacing:0px;fill:#eaeaea;fill-opacity:1;stroke:#bdbdbd;stroke-opacity:1"
                     transform="matrix(0.04326204,0.1879999,-0.16570667,0.03813198,110.5388,-23.27244)"
                     aria-label="u">
                    <path
                       id="path4628"
                       style="font-style:normal;font-variant:normal;font-weight:normal;font-stretch:normal;font-size:192px;font-family:Edo;-inkscape-font-specification:Edo;fill:#eaeaea;fill-opacity:1;stroke:#bdbdbd;stroke-opacity:1"
                       d="m 174.14258,3.2768799 3.1875,4.78125 -1.59375,7.9687501 1.59375,1.59375 h 1.59375 l 1.59375,-7.9687501 h 3.1875 l 1.59375,4.7812501 q -12.75,45.9375 -12.75,71.71875 1.59375,17.53125 6.375,17.53125 l 36.65625,-41.4375 1.59375,-7.96875 V 9.6518799 l 3.1875,-3.1875 q 3.1875,0 3.1875,6.3750001 h 1.59375 q 0,-6.3750001 7.96875,-6.3750001 l 3.1875,6.3750001 -1.59375,7.96875 q 3.1875,0 3.1875,-7.96875 h 3.1875 l 1.59375,1.59375 h 1.59375 l -7.96875,114.75 -1.59375,6.375 q -6.375,0 -6.375,6.375 h -6.375 l 1.59375,-15.9375 h -3.1875 v 9.5625 l -4.78125,4.78125 v -1.59375 l 1.59375,-15.9375 q -4.78125,0 -4.78125,-6.375 h -1.59375 l -27.09375,12.75 -12.75,-3.1875 v 1.59375 q -16.5,0 -22.3125,-47.8125 6.375,-71.7187501 12.75,-71.7187501 v -1.59375 h 1.59375 V 12.83938 h -3.1875 v 3.1875 l 1.59375,1.59375 v 1.59375 h -1.59375 l 1.59375,4.78125 -4.78125,7.96875 h 1.59375 l 1.59375,-1.59375 -4.78125,28.6875 v 6.375 h 1.59375 q 5.0625,-62.1562501 17.53125,-62.1562501 z m -19.125,63.7500001 -1.59375,1.59375 v 12.75 h 1.59375 l 1.59375,-14.34375 z m 49.40625,12.75 -11.15625,12.75 h 1.59375 l 11.15625,-12.75 z m -46.21875,25.5 v 3.1875 l 1.59375,4.78125 h 1.59375 v -3.1875 l -1.59375,-4.78125 z m 11.15625,7.96875 v 1.59375 q 0,5.53125 14.34375,9.5625 h 3.1875 v -1.59375 q -9.1875,-0.0937 -17.53125,-9.5625 z" />
                  </g>
                  <g
                     id="flowRoot4571"
                     style="font-style:normal;font-variant:normal;font-weight:normal;font-stretch:normal;font-size:32px;line-height:25px;font-family:Melbourne;-inkscape-font-specification:Melbourne;letter-spacing:0px;word-spacing:0px;fill:#eaeaea;fill-opacity:1;stroke:#bdbdbd;stroke-opacity:1"
                     transform="matrix(0.06127884,0.14763894,-0.14603528,0.06118688,108.65331,-1.0080539)"
                     aria-label="B">
                    <path
                       id="path4631"
                       style="font-style:normal;font-variant:normal;font-weight:normal;font-stretch:normal;font-size:192px;font-family:Edo;-inkscape-font-specification:Edo;fill:#eaeaea;fill-opacity:1;stroke:#bdbdbd;stroke-opacity:1"
                       d="m 212.01758,-1.6918701 7.6875,2.43749999 -0.1875,1.59375001 -7.875,-0.84375 z m -30.46875,-0.1875 4.40625,3.75 14.625,-1.59375001 1.40625,1.78125001 1.59375,0.1875 4.875,-1.03125 q 26.8125,2.8125 38.71875,26.6250001 3.1875,0.375 2.34375,8.25 l -1.21875,11.15625 -3.1875,-0.375 0.1875,-1.59375 2.15625,-4.59375 -1.40625,-1.78125 1.6875,-1.40625 -1.40625,-1.78125 -3.09375,-0.28125 q -1.03125,9.09375 -18.1875,18.84375 l -0.1875,1.59375 1.59375,0.09375 q 6,0.75 16.78125,-6.09375 l -0.28125,3.1875 -9.09375,8.625 q 8.8125,0.9375 25.78125,28.40625 -1.875,17.4375 -52.03125,36 -21.46875,10.40625 -33.09375,9.1875 l -2.8125,-3.65625 -1.59375,-0.0937 q -0.46875,4.78125 -6.84375,4.03125 -0.5625,4.40625 -3.1875,4.40625 h -0.5625 q -3.1875,-0.375 -1.875,-11.4375 l -1.59375,-0.0937 -2.4375,7.6875 -1.59375,-0.1875 q 1.6875,-15.75 -3.09375,-16.21875 l -0.84375,-6.5625 1.78125,-1.40625 -1.5,-1.78125 15.46875,-67.3125 -1.40625,-1.6875 1.59375,0.1875 -1.40625,-1.6875 4.21875,-23.625 0.0937,-1.59375 -1.96875,-11.4375001 1.59375,0.09375 q 8.90625,-4.875 13.96875,-4.875 0.5625,0 1.03125,0.09375 z m 37.875,20.2500001 -0.1875,1.59375 12.5625,3 q 0.28125,-3.1875 -4.40625,-3.65625 z m -30.65625,15.84375 0.46875,11.25 14.53125,-1.59375 -0.28125,3.1875 23.53125,-10.21875 -0.1875,1.59375 -12.09375,8.25 q 19.78125,-5.4375 21.28125,-18.46875 l -3.1875,-0.375 q -0.9375,7.875 -5.625,7.40625 l 0.28125,-3.1875 -1.59375,-0.09375 2.15625,-4.6875 1.40625,1.78125 1.59375,0.28125 0.1875,-1.59375 q -5.8125,-5.53125 -18.5625,-6.84375 -22.125,-2.53125 -23.90625,13.3125 z m 37.125,-2.25 -0.0937,1.59375 -3.5625,2.71875 -1.59375,-0.09375 z m -7.3125,37.6875 -0.0937,1.5 15.5625,3.375 1.59375,0.09375 0.1875,-1.59375 -6.1875,-2.25 z m -35.8125,5.625 -4.78125,28.3125 1.40625,1.78125 1.59375,0.1875 q 11.4375,1.3125 51.84375,-19.96875 l 3.5625,-2.8125 q -0.28125,-6.46875 -12,-7.6875 l -12.65625,-1.5 z m 57,6.1875 -3.84375,6.09375 6.84375,-4.03125 -1.40625,-1.78125 z m 10.40625,7.59375 q -0.5625,4.96875 -31.5,23.8125 35.25,-14.0625 36,-21.65625 l -1.59375,-0.1875 -1.3125,-1.78125 z" />
                  </g>
                </g>
              </g>
            </g>
            <g
               id="flowRoot4599"
               style="font-style:normal;font-variant:normal;font-weight:normal;font-stretch:normal;font-size:32px;line-height:25px;font-family:Melbourne;-inkscape-font-specification:Melbourne;letter-spacing:0px;word-spacing:0px;fill:#000000;fill-opacity:1;stroke:none"
               transform="matrix(0.04326204,0.1879999,-0.16570667,0.03813198,113.92579,-19.385756)"
               aria-label="UndoBox">
              <path
                 id="path4634"
                 style="font-style:normal;font-variant:normal;font-weight:normal;font-stretch:normal;font-size:96px;font-family:Mistral;-inkscape-font-specification:Mistral"
                 d="m 239.66602,269.7687 q 0,-0.98437 -0.46875,-3.09375 -0.46875,-2.10937 -0.46875,-3.1875 0,-0.60937 0.0937,-1.875 0.14062,-1.3125 0.14062,-1.92187 0,-1.73438 -0.23437,-5.20313 -0.1875,-3.51562 -0.1875,-5.25 0,-2.90625 0.32812,-7.5 0.32813,-4.59375 0.9375,-10.78125 0.28125,-2.25 0.98438,-3.42187 0.75,-1.17188 1.96875,-1.17188 0.42187,0 0.79687,0.5625 0.42188,0.5625 0.89063,1.6875 1.07812,1.03125 2.15625,1.875 0.84375,0.75 1.26562,1.875 0.42188,1.07813 0.42188,2.57813 0,1.35937 -0.60938,3.89062 -0.5625,2.48438 -0.5625,3.75 0,2.4375 -0.1875,4.125 -0.14062,1.64063 -0.46875,2.53125 l -0.51562,1.5 q 0.1875,1.40625 0.375,3.14063 -0.14063,2.67187 -0.1875,5.57812 0,2.85938 0.46875,5.90625 0.46875,3 1.26562,6.04688 1.125,4.125 2.71875,6.23437 1.64063,2.0625 3.65625,2.0625 1.03125,0 1.875,-0.46875 0.89063,-0.51562 1.6875,-1.54687 0.60938,-0.84375 1.17188,-1.73438 0.5625,-0.89062 1.125,-1.73437 0.60937,-0.75 1.3125,-1.875 0.70312,-1.17188 1.54687,-2.76563 0.79688,-2.8125 1.78125,-5.67187 0.98438,-2.85938 1.96875,-5.76563 0.23438,-0.9375 0.60938,-2.39062 0.375,-1.5 0.75,-3.42188 0.89062,-2.34375 1.73437,-6.51562 0.89063,-4.17188 1.96875,-10.125 0.375,-0.9375 0.89063,-2.39063 0.5625,-1.45312 1.26562,-3.375 0.1875,-0.70312 0.70313,-2.20312 0.51562,-1.5 1.45312,-3.79688 0.375,-1.125 1.35938,-1.6875 0.98437,-0.60937 2.4375,-0.60937 0.89062,0 1.26562,1.17187 0.42188,1.125 0.42188,3.46875 0,4.45313 -1.125,10.92188 -1.07813,6.42187 -3.42188,14.71875 -0.14062,0.75 -0.46875,1.92187 -0.28125,1.125 -0.70312,2.57813 -0.0469,0.89062 -0.23438,2.0625 -0.14062,1.125 -0.42187,2.625 -0.75,2.625 -1.26563,5.625 -0.46875,3 -0.75,6.23437 0,0.46875 -0.1875,1.40625 -0.14062,0.9375 -0.42187,2.25 -0.28125,1.3125 -0.375,2.34375 -0.0937,1.03125 -0.0937,1.92188 0.14062,1.26562 0.28125,2.39062 0.60937,0.65625 0.89062,1.125 0.32813,0.42188 0.32813,0.70313 -0.28125,0.84375 -0.98438,1.82812 -0.65625,0.98438 -1.73437,2.10938 -1.125,1.26562 -2.20313,1.92187 -1.07812,0.65625 -1.96875,0.65625 -0.84375,0 -1.64062,-1.03125 -0.79688,-1.07812 -0.79688,-2.01562 v -0.375 q 0.1875,-0.46875 0.32813,-1.07813 0,-0.23437 -0.14063,-0.46875 -0.0937,-0.28125 -0.1875,-0.70312 0.0937,-0.23438 0.28125,-0.70313 0.1875,-0.46875 0.375,-1.07812 -0.0937,-0.23438 -0.23437,-0.5625 -0.0937,-0.32813 -0.32813,-0.79688 0.0937,-0.28125 0.1875,-0.65625 0.0937,-0.42187 0.28125,-1.03125 0,-0.375 -0.0937,-0.9375 0.0469,-0.32812 0.14063,-0.9375 0.0937,-0.65625 0.23437,-1.59375 0.1875,-0.79687 0.28125,-1.3125 0.14063,-0.5625 0.14063,-0.84375 0,-0.32812 -0.14063,-0.60937 -0.0937,-0.28125 -0.28125,-0.375 -0.28125,0.0937 -0.79687,0.70312 -0.46875,0.60938 -1.07813,1.6875 -0.75,1.26563 -1.3125,2.0625 -0.51562,0.75 -0.70312,1.03125 l -0.1875,0.65625 q -1.26563,1.73438 -2.25,2.90625 -0.98438,1.125 -1.5,1.59375 -0.89063,0.79688 -2.15625,1.45313 -1.21875,0.65625 -2.95313,1.125 -0.89062,0.1875 -1.64062,0.46875 -1.78125,0 -3.14063,-0.46875 -1.35937,-0.46875 -2.0625,-1.3125 -2.85937,-3.32813 -4.26562,-7.45313 -1.40625,-4.125 -1.40625,-9.1875 z" />
              <path
                 id="path4636"
                 style="font-style:normal;font-variant:normal;font-weight:normal;font-stretch:normal;font-size:96px;font-family:Mistral;-inkscape-font-specification:Mistral"
                 d="m 280.25977,277.8312 q 0.1875,-0.32812 0.51562,-0.70312 0.28125,-0.42188 0.70313,-0.98438 0.46875,-0.375 1.21875,-1.07812 0.75,-0.70313 1.6875,-1.64063 0.84375,-0.9375 2.0625,-2.29687 1.21875,-1.40625 2.95312,-3.375 0.75,-0.79688 1.875,-2.01563 1.125,-1.26562 2.67188,-3 1.3125,-1.54687 2.8125,-2.29687 1.5,-0.75 3.1875,-0.75 1.6875,0 2.48437,1.07812 0.79688,1.03125 0.79688,3.04688 0,1.07812 -0.79688,4.125 -0.79687,3.04687 -2.48437,8.0625 -0.42188,0.9375 -0.79688,1.78125 -0.28125,0.60937 -0.375,1.07812 -0.0937,0.46875 -0.0937,0.70313 0,0.28125 0.32813,0.70312 0.23437,-0.14062 0.42187,-0.375 0.23438,-0.23437 0.51563,-0.5625 0.375,-0.70312 1.125,-1.45312 0.79687,-0.79688 1.875,-1.73438 0.42187,-0.79687 1.07812,-1.54687 0.70313,-0.79688 1.54688,-1.45313 0.1875,-0.1875 0.46875,-0.60937 0.32812,-0.42188 0.75,-0.89063 0.60937,-0.60937 1.45312,-1.26562 0.84375,-0.65625 1.96875,-1.35938 1.26563,-0.65625 2.25,-1.03125 1.03125,-0.375 1.78125,-0.375 1.45313,0 2.57813,0.70313 1.125,0.70312 1.92187,2.20312 0.9375,2.90625 1.78125,5.39063 0.51563,1.45312 1.125,2.15625 0.65625,0.70312 1.45313,0.70312 0.60937,0 1.07812,-0.23437 0.51563,-0.23438 0.9375,-0.70313 l 1.875,4.3125 q -0.79687,0.65625 -1.64062,1.35938 -0.84375,0.70312 -1.64063,1.35937 -1.07812,0.98438 -2.01562,1.40625 -0.9375,0.375 -1.875,0.375 -1.07813,0 -2.0625,-0.46875 -0.98438,-0.46875 -1.6875,-1.40625 -0.375,-0.375 -0.9375,-1.35937 -0.5625,-1.03125 -1.3125,-2.53125 -0.60938,-0.60938 -1.40625,-1.59375 -0.75,-1.03125 -1.78125,-2.39063 l -0.42188,-0.14062 q -0.89062,0.28125 -1.78125,0.84375 -0.84375,0.5625 -1.82812,1.45312 -2.10938,1.875 -3.04688,2.34375 -0.9375,0.46875 -1.26562,1.07813 -0.65625,1.125 -2.25,2.90625 -1.59375,1.78125 -3.98438,4.21875 -0.60937,0.60937 -1.21875,1.21875 -0.60937,0.5625 -1.21875,1.125 -0.60937,0.51562 -1.40625,0.70312 -0.75,0.23438 -1.6875,0.23438 -1.875,0 -2.0625,-1.26563 -0.14062,-1.3125 -0.28125,-2.625 0.70313,-1.96875 1.59375,-4.92187 0.89063,-2.95313 2.0625,-6.89063 0,-0.23437 0.14063,-0.60937 0.1875,-0.42188 0.42187,-1.07813 0.23438,-0.60937 0.32813,-1.03125 0.0937,-0.46875 0.0937,-0.79687 0,-0.32813 -0.23438,-0.51563 -0.23437,-0.1875 -0.75,-0.1875 -0.46875,0 -1.26562,0.5625 -0.75,0.5625 -1.82813,1.78125 -1.3125,1.40625 -2.10937,2.20313 -0.79688,0.79687 -1.07813,0.9375 -0.46875,0.32812 -1.125,0.9375 -0.60937,0.60937 -1.40625,1.35937 -0.0937,0.1875 -0.28125,0.5625 -0.1875,0.375 -0.60937,0.84375 -0.1875,-0.70312 -0.65625,-1.73437 -0.46875,-1.03125 -1.21875,-2.57813 z" />
              <path
                 id="path4638"
                 style="font-style:normal;font-variant:normal;font-weight:normal;font-stretch:normal;font-size:96px;font-family:Mistral;-inkscape-font-specification:Mistral"
                 d="m 325.07227,277.8312 0.28125,-0.32812 0.14062,-0.46875 q 0.84375,-1.03125 1.45313,-1.59375 0.60937,-0.60938 0.9375,-0.9375 0.23437,-0.23438 1.03125,-0.60938 0.79687,-0.375 2.15625,-0.9375 l 0.60937,-0.375 q 0.32813,-0.51562 1.17188,-1.5 0.84375,-0.98437 2.01562,-2.25 0.23438,-0.28125 0.70313,-0.60937 0.46875,-0.32813 0.98437,-0.84375 1.125,-1.07813 2.25,-2.20313 1.125,-1.17187 2.10938,-2.29687 0.42187,-0.42188 1.73437,-1.5 1.3125,-1.125 3.5625,-3.09375 0.32813,-0.23438 1.17188,-0.65625 0.84375,-0.46875 2.20312,-1.07813 0.60938,-0.28125 0.89063,-0.89062 0.32812,-0.65625 0.32812,-1.64063 0.375,-0.60937 0.70313,-1.45312 0.375,-0.89063 0.70312,-2.0625 0.46875,-1.45313 0.70313,-2.34375 0.28125,-0.9375 0.42187,-1.26563 0.79688,-2.10937 2.15625,-4.92187 1.35938,-2.85938 3.23438,-6.51563 0.9375,-1.92187 2.20312,-4.26562 0.79688,-1.17188 1.78125,-1.73438 0.98438,-0.60937 2.0625,-0.60937 0.84375,0 1.21875,0.65625 0.42188,0.65625 0.42188,1.92187 0,2.01563 -0.28125,3.84375 -0.28125,1.82813 -1.03125,3.42188 -0.14063,0.32812 -0.23438,0.98437 -0.0937,0.65625 -0.1875,1.59375 -0.0469,0.65625 -0.375,1.26563 -0.28125,0.60937 -0.75,1.125 0,0.32812 -0.0937,0.79687 -0.0937,0.42188 -0.1875,1.03125 l -0.65625,0.84375 q -0.0937,0.28125 -0.0937,0.70313 0,0.375 0,0.79687 0,0.28125 -0.32812,1.125 -0.32813,0.79688 -0.98438,2.29688 -0.75,1.59375 -1.21875,2.53125 -0.42187,0.9375 -0.46875,1.17187 -0.1875,0.23438 -0.51562,0.75 -0.28125,0.51563 -0.70313,1.17188 l 0.14063,1.03125 -3,10.78125 q 0,1.78125 0.0469,3.04687 0.0469,1.26563 0.28125,2.01563 0.23438,0.79687 0.75,1.96875 0.5625,1.125 1.40625,2.4375 0.51563,0.89062 1.21875,1.3125 0.70313,0.375 1.5,0.375 0.89063,0 1.78125,-0.46875 0.9375,-0.51563 1.875,-1.54688 0.5625,1.21875 1.03125,2.29688 0.51563,1.07812 0.84375,2.01562 -0.23437,0.14063 -1.03125,0.98438 -0.75,0.79687 -2.01562,2.29687 -0.75,0.89063 -1.875,1.3125 -1.07813,0.375 -2.67188,0.375 -3.51562,0 -5.71875,-1.82812 -2.20312,-1.82813 -3.09375,-5.48438 -0.1875,-0.75 -0.32812,-1.3125 -0.14063,-0.5625 -0.28125,-1.03125 -0.32813,-0.89062 -1.125,-1.92187 -0.32813,0.46875 -0.51563,0.70312 -0.5625,0.375 -1.26562,1.07813 -0.65625,0.70312 -1.35938,1.78125 -0.14062,0.46875 -0.51562,1.17187 -0.375,0.65625 -1.03125,1.59375 -1.5,1.73438 -3.04688,3.51563 -1.54687,1.73437 -3.09375,3.42187 -2.10937,2.34375 -3.89062,3.42188 -1.78125,1.125 -3.09375,1.125 -2.34375,0 -3.46875,-1.125 -1.125,-1.07813 -1.125,-3.42188 0,-1.07812 0.79687,-3 0.79688,-1.96875 0.79688,-2.90625 l -0.28125,-0.75 z m 23.57812,-13.40625 q 0,-0.23437 -0.1875,-0.70312 -0.70312,0.70312 -1.73437,1.64062 -1.03125,0.9375 -2.4375,2.0625 -0.32813,0.75 -1.5,2.39063 -1.17188,1.59375 -3.28125,3.98437 -0.60938,0.70313 -1.64063,2.4375 -1.03125,1.6875 -2.53125,4.17188 -0.51562,0.98437 -1.07812,2.39062 0,0.28125 0.375,0.60938 1.40625,-0.42188 3.42187,-2.4375 2.0625,-2.0625 4.875,-5.67188 2.90625,-3.84375 4.3125,-6.51562 1.40625,-2.71875 1.40625,-4.35938 z" />
              <path
                 id="path4640"
                 style="font-style:normal;font-variant:normal;font-weight:normal;font-stretch:normal;font-size:96px;font-family:Mistral;-inkscape-font-specification:Mistral"
                 d="m 364.25977,277.8312 q 0.32812,-0.32812 0.70312,-0.84375 0.32813,-0.5625 0.79688,-1.21875 l 3.60937,-2.48437 q 0.65625,-0.79688 2.01563,-2.01563 1.35937,-1.26562 3.375,-3.04687 0.23437,-0.51563 0.75,-1.17188 0.5625,-0.70312 1.3125,-1.35937 0.65625,-0.60938 1.3125,-1.125 0.65625,-0.5625 1.21875,-1.07813 0.70312,-0.70312 1.3125,-1.40625 0.65625,-0.70312 1.3125,-1.35937 0.75,-0.65625 1.54687,-1.03125 0.79688,-0.375 1.73438,-0.375 1.03125,0 1.54687,0.28125 0.5625,0.23437 0.60938,0.70312 -0.46875,1.07813 -0.98438,2.15625 l 0.28125,0.42188 q 2.0625,-0.79688 3.23438,-1.17188 1.17187,-0.375 1.5,-0.375 3.42187,0 5.10937,2.10938 1.73438,2.0625 1.73438,6.28125 0,0.79687 -0.1875,1.875 -0.1875,1.07812 -0.60938,2.34375 -0.46875,1.40625 -1.03125,2.34375 -0.51562,0.9375 -0.98437,1.35937 0.1875,0.60938 0.42187,0.89063 0.23438,0.23437 0.60938,0.23437 0.375,0 0.75,-0.23437 0.42187,-0.23438 0.98437,-0.70313 0.46875,1.03125 0.89063,2.15625 0.46875,1.07813 0.9375,2.15625 -0.84375,0.75 -1.64063,1.45313 -0.79687,0.70312 -1.6875,1.35937 -1.07812,0.89063 -2.0625,1.3125 -0.9375,0.375 -1.875,0.375 -1.07812,0 -1.78125,-0.51562 -0.70312,-0.51563 -1.125,-1.45313 -1.17187,1.54688 -2.85937,2.85938 -1.64063,1.26562 -3.65625,2.10937 -1.17188,0.5625 -2.15625,0.89063 -0.9375,0.28125 -1.73438,0.28125 -0.23437,0 -0.9375,0.1875 -0.65625,0.1875 -1.07812,0.1875 -2.67188,0 -4.82813,-2.25 -2.15625,-2.25 -2.15625,-5.01563 0,-1.125 0.51563,-2.95312 0.51562,-1.875 0.51562,-2.20313 0,-0.32812 -0.23437,-0.51562 -0.1875,-0.23438 -0.5625,-0.23438 -0.23438,0 -1.125,0.70313 -0.89063,0.70312 -2.53125,2.01562 -0.14063,0.1875 -0.32813,0.5625 -0.1875,0.375 -0.60937,0.84375 -0.375,-1.07812 -0.84375,-2.15625 -0.46875,-1.125 -1.03125,-2.15625 z m 22.54687,-8.57812 q -0.23437,0.0469 -0.70312,0.51562 -0.42188,0.42188 -0.84375,1.07813 -0.65625,1.07812 -1.5,2.34375 -0.51563,0.5625 -1.125,0.89062 -0.5625,0.28125 -1.3125,0.42188 -0.46875,0.0469 -0.98438,0.9375 -0.51562,0.84375 -1.03125,2.48437 -0.51562,1.45313 -0.75,2.48438 -0.23437,1.03125 -0.23437,1.73437 0,1.3125 0.65625,1.96875 0.65625,0.65625 2.01562,0.65625 2.15625,0 3.9375,-1.17187 1.82813,-1.21875 3.42188,-3.60938 0.75,-0.89062 1.40625,-1.6875 0.375,-0.28125 0.60937,-0.89062 0.23438,-0.65625 0.46875,-1.59375 l 0.84375,-2.67188 q -0.42187,-1.40625 -0.79687,-2.20312 -0.375,-0.84375 -0.75,-1.03125 -0.23438,-0.14063 -1.03125,-0.28125 -0.79688,-0.1875 -2.29688,-0.375 z" />
              <path
                 id="path4642"
                 style="font-style:normal;font-variant:normal;font-weight:normal;font-stretch:normal;font-size:96px;font-family:Mistral;-inkscape-font-specification:Mistral"
                 d="m 401.15039,291.37808 q 0.42188,-0.375 1.17188,-0.98438 0.79687,-0.65625 2.01562,-1.54687 0.9375,-0.60938 1.35938,-1.17188 0.42187,-0.5625 0.42187,-1.17187 0,-2.20313 -0.0469,-2.8125 0,-0.60938 0,-0.9375 0,-4.5 0.23437,-7.03125 0.23438,-2.53125 0.60938,-3.14063 l -0.0937,-1.40625 -0.28125,-0.32812 q 0,-0.51563 0,-0.89063 0.0469,-0.42187 0.0469,-0.70312 0,-2.57813 -2.29687,-3.28125 -2.25,-0.70313 -2.25,-2.85938 0,-0.65625 1.3125,-1.59375 1.3125,-0.98437 3.84375,-2.34375 0.32812,-2.29687 0.70312,-5.01562 0.375,-2.71875 0.89063,-6 -0.1875,-0.60938 -0.28125,-0.98438 -0.0937,-0.42187 -0.0937,-0.75 0,-1.64062 0.375,-3 0.375,-1.35937 1.03125,-2.57812 0.42187,-0.65625 1.07812,-1.40625 0.65625,-0.79688 1.59375,-1.73438 0.75,-0.70312 1.125,-1.21875 0.375,-0.5625 0.375,-0.89062 0,-0.375 -0.32812,-0.60938 -0.28125,-0.23437 -0.84375,-0.23437 -1.73438,0 -5.10938,1.125 -3.375,1.07812 -5.0625,1.07812 -0.5625,0 -0.84375,-0.14062 -0.23437,-0.14063 -0.23437,-0.46875 0,-0.9375 0.0937,-1.64063 0.0937,-0.70312 0.23437,-0.98437 0.79688,-0.60938 1.21875,-1.17188 0.46875,-0.5625 0.46875,-1.125 0,-0.23437 0.46875,-0.60937 0.51563,-0.375 1.59375,-0.65625 4.3125,-1.21875 6.5625,-1.875 2.29688,-0.65625 2.625,-0.75 2.625,-0.65625 5.01563,-0.9375 2.39062,-0.32813 4.45312,-0.32813 0.23438,0 0.9375,0.14063 0.70313,0.0937 0.9375,0 0.9375,-0.14063 1.96875,-0.32813 0.28125,0 1.64063,0.28125 1.35937,0.23438 3.79687,0.70313 0.51563,-0.0937 1.125,-0.23438 1.35938,0 2.25,0.42188 0.9375,0.42187 1.45313,1.17187 0.65625,0.14063 1.26562,0.14063 1.21875,0 2.20313,0.70312 1.03125,0.65625 1.78125,1.92188 0.65625,1.21875 1.03125,2.4375 0.375,1.17187 0.375,2.4375 0,2.48437 -1.07813,4.73437 -1.03125,2.20313 -3.14062,4.125 -0.23438,0.14063 -2.29688,1.6875 -2.01562,1.5 -5.90625,4.21875 -0.42187,0.28125 -0.98437,0.79688 -0.5625,0.51562 -1.35938,1.07812 -3.84375,2.29688 -7.40625,4.40625 -3,1.64063 -4.54687,2.76563 -1.54688,1.125 -1.54688,1.59375 0,0.9375 0.79688,1.6875 0.79687,0.70312 2.4375,1.26562 2.39062,0.84375 5.39062,1.92188 3,1.07812 6.42188,2.57812 0.32812,0.0937 0.79687,0.375 0.51563,0.28125 1.125,0.60938 4.03125,1.5 5.95313,3.70312 1.96875,2.15625 1.96875,5.01563 0,4.17187 -7.54688,7.92187 -7.5,3.75 -22.5,7.125 -0.23437,0.65625 -0.5625,1.3125 -0.28125,0.65625 -0.51562,1.26563 -0.32813,0.51562 -0.9375,0.79687 -0.60938,0.32813 -1.40625,0.32813 -0.89063,0 -1.40625,-0.65625 -0.51563,-0.60938 -0.70313,-1.96875 -0.375,-0.32813 -0.60937,-0.28125 l -2.67188,0.70312 q -0.51562,-0.28125 -0.98437,-0.51562 -0.42188,-0.1875 -0.89063,-0.42188 -0.46875,-0.28125 -0.75,-0.70312 -0.28125,-0.375 -0.28125,-0.84375 0,-0.42188 0.28125,-0.70313 0.32813,-0.23437 0.9375,-0.60937 z m 14.39063,-22.21875 q -0.75,0 -1.3125,1.3125 -0.51563,1.26562 -0.84375,3.79687 -0.1875,2.34375 -0.375,4.73438 -0.1875,2.34375 -0.375,4.6875 -0.28125,1.17187 -0.46875,2.48437 l 0.0937,0.46875 0.375,0.1875 q 1.875,-0.51562 4.17187,-1.07812 1.59375,0 1.875,-0.28125 0.32813,-0.32813 7.59375,-3.5625 3.09375,-1.3125 4.64063,-2.4375 1.54687,-1.17188 1.54687,-2.01563 0,-0.51562 -0.42187,-0.98437 -0.42188,-0.46875 -1.26563,-0.98438 -2.20312,-1.40625 -4.875,-2.53125 -2.67187,-1.17187 -5.85937,-2.10937 -0.42188,-0.14063 -0.98438,-0.28125 -0.51562,-0.1875 -1.17187,-0.375 -1.03125,-0.46875 -1.59375,-0.75 -0.51563,-0.28125 -0.75,-0.28125 z m 9.09375,-35.15625 q -1.78125,0 -2.90625,0.28125 -1.07813,0.23437 -1.54688,0.79687 -0.375,0.375 -0.79687,1.45313 -0.375,1.07812 -0.84375,2.95312 -0.1875,1.03125 -0.28125,2.29688 -0.0469,1.26562 0,2.76562 -0.51563,1.21875 -1.07813,2.0625 l 0.23438,1.21875 q -0.5625,2.34375 -0.79688,3.75 -0.23437,1.40625 -0.23437,1.875 0,0.70313 0.28125,0.98438 0.28125,0.28125 0.79687,0.28125 0.46875,0 2.20313,-1.03125 1.78125,-1.03125 4.875,-3.09375 3.42187,-2.25 5.20312,-3.42188 1.82813,-1.21875 2.10938,-1.35937 0.60937,-0.75 1.17187,-1.45313 0.60938,-0.75 1.17188,-1.45312 0.79687,-0.98438 1.17187,-1.73438 0.375,-0.79687 0.375,-1.40625 0,-1.125 -0.70312,-2.01562 -0.70313,-0.89063 -2.10938,-1.54688 -0.46875,-0.1875 -1.6875,-0.5625 -1.17187,-0.375 -3.04687,-0.75 -1.54688,-0.42187 -2.4375,-0.65625 -0.89063,-0.23437 -1.125,-0.23437 z" />
              <path
                 id="path4644"
                 style="font-style:normal;font-variant:normal;font-weight:normal;font-stretch:normal;font-size:96px;font-family:Mistral;-inkscape-font-specification:Mistral"
                 d="m 442.07227,277.8312 q 0.32812,-0.32812 0.70312,-0.84375 0.32813,-0.5625 0.79688,-1.21875 l 3.60937,-2.48437 q 0.65625,-0.79688 2.01563,-2.01563 1.35937,-1.26562 3.375,-3.04687 0.23437,-0.51563 0.75,-1.17188 0.5625,-0.70312 1.3125,-1.35937 0.65625,-0.60938 1.3125,-1.125 0.65625,-0.5625 1.21875,-1.07813 0.70312,-0.70312 1.3125,-1.40625 0.65625,-0.70312 1.3125,-1.35937 0.75,-0.65625 1.54687,-1.03125 0.79688,-0.375 1.73438,-0.375 1.03125,0 1.54687,0.28125 0.5625,0.23437 0.60938,0.70312 -0.46875,1.07813 -0.98438,2.15625 l 0.28125,0.42188 q 2.0625,-0.79688 3.23438,-1.17188 1.17187,-0.375 1.5,-0.375 3.42187,0 5.10937,2.10938 1.73438,2.0625 1.73438,6.28125 0,0.79687 -0.1875,1.875 -0.1875,1.07812 -0.60938,2.34375 -0.46875,1.40625 -1.03125,2.34375 -0.51562,0.9375 -0.98437,1.35937 0.1875,0.60938 0.42187,0.89063 0.23438,0.23437 0.60938,0.23437 0.375,0 0.75,-0.23437 0.42187,-0.23438 0.98437,-0.70313 0.46875,1.03125 0.89063,2.15625 0.46875,1.07813 0.9375,2.15625 -0.84375,0.75 -1.64063,1.45313 -0.79687,0.70312 -1.6875,1.35937 -1.07812,0.89063 -2.0625,1.3125 -0.9375,0.375 -1.875,0.375 -1.07812,0 -1.78125,-0.51562 -0.70312,-0.51563 -1.125,-1.45313 -1.17187,1.54688 -2.85937,2.85938 -1.64063,1.26562 -3.65625,2.10937 -1.17188,0.5625 -2.15625,0.89063 -0.9375,0.28125 -1.73438,0.28125 -0.23437,0 -0.9375,0.1875 -0.65625,0.1875 -1.07812,0.1875 -2.67188,0 -4.82813,-2.25 -2.15625,-2.25 -2.15625,-5.01563 0,-1.125 0.51563,-2.95312 0.51562,-1.875 0.51562,-2.20313 0,-0.32812 -0.23437,-0.51562 -0.1875,-0.23438 -0.5625,-0.23438 -0.23438,0 -1.125,0.70313 -0.89063,0.70312 -2.53125,2.01562 -0.14063,0.1875 -0.32813,0.5625 -0.1875,0.375 -0.60937,0.84375 -0.375,-1.07812 -0.84375,-2.15625 -0.46875,-1.125 -1.03125,-2.15625 z m 22.54687,-8.57812 q -0.23437,0.0469 -0.70312,0.51562 -0.42188,0.42188 -0.84375,1.07813 -0.65625,1.07812 -1.5,2.34375 -0.51563,0.5625 -1.125,0.89062 -0.5625,0.28125 -1.3125,0.42188 -0.46875,0.0469 -0.98438,0.9375 -0.51562,0.84375 -1.03125,2.48437 -0.51562,1.45313 -0.75,2.48438 -0.23437,1.03125 -0.23437,1.73437 0,1.3125 0.65625,1.96875 0.65625,0.65625 2.01562,0.65625 2.15625,0 3.9375,-1.17187 1.82813,-1.21875 3.42188,-3.60938 0.75,-0.89062 1.40625,-1.6875 0.375,-0.28125 0.60937,-0.89062 0.23438,-0.65625 0.46875,-1.59375 l 0.84375,-2.67188 q -0.42187,-1.40625 -0.79687,-2.20312 -0.375,-0.84375 -0.75,-1.03125 -0.23438,-0.14063 -1.03125,-0.28125 -0.79688,-0.1875 -2.29688,-0.375 z" />
              <path
                 id="path4646"
                 style="font-style:normal;font-variant:normal;font-weight:normal;font-stretch:normal;font-size:96px;font-family:Mistral;-inkscape-font-specification:Mistral"
                 d="m 476.00977,277.8312 q 1.40625,-0.89062 2.76562,-1.6875 1.35938,-0.84375 2.67188,-1.73437 2.48437,-1.59375 3.70312,-2.71875 1.26563,-1.125 1.26563,-1.6875 0,-0.89063 -0.89063,-2.8125 -0.89062,-1.96875 -0.89062,-3 0,-1.54688 0.5625,-2.8125 0.60937,-1.3125 1.92187,-2.39063 0.65625,-0.60937 1.125,-0.89062 0.51563,-0.32813 0.84375,-0.32813 0.84375,0 1.40625,0.84375 0.5625,0.84375 0.84375,2.48438 0.375,1.82812 0.79688,2.85937 0.42187,0.98438 0.79687,1.17188 0.5625,-0.23438 1.125,-0.5625 0.5625,-0.375 1.17188,-0.70313 0.79687,-0.9375 2.25,-2.25 1.45312,-1.35937 3.5625,-3.23437 2.39062,-2.10938 3.9375,-3.1875 1.59375,-1.125 2.25,-1.3125 0.42187,0 0.89062,0.0469 -0.23437,0 0,0 0.28125,-0.0469 0.84375,-0.0469 0.60938,-0.0937 1.17188,0.46875 0.60937,0.51562 1.07812,1.6875 0.46875,0.98437 0.70313,1.82812 0.23437,0.79688 0.23437,1.5 0,1.73438 -0.28125,2.95313 -0.28125,1.17187 -0.89062,1.78125 -0.51563,0.84375 -1.5,2.10937 -0.98438,1.21875 -2.39063,2.8125 -4.26562,4.26563 -6.42187,6.5625 -2.15625,2.25 -2.15625,2.53125 0,1.07813 1.54687,2.57813 1.54688,1.45312 2.76563,1.45312 2.25,-0.28125 4.07812,-0.60937 1.21875,-0.75 2.53125,-1.6875 1.3125,-0.9375 2.71875,-2.01563 0.51563,1.21875 1.03125,2.29688 0.51563,1.07812 0.84375,2.01562 -0.32812,0.23438 -0.84375,0.75 -0.51562,0.51563 -1.26562,1.125 -0.46875,0.46875 -1.6875,1.17188 -1.17188,0.65625 -3.14063,1.45312 -0.65625,0.32813 -1.40625,0.75 -0.75,0.375 -1.40625,0.70313 -0.84375,0.42187 -1.64062,0.65625 -0.75,0.23437 -1.5,0.23437 -1.35938,0 -2.25,-0.23437 -0.84375,-0.23438 -1.3125,-0.5625 l -4.82813,-4.78125 -0.32812,-0.14063 -0.23438,0.14063 q -0.46875,0.42187 -1.17187,1.03125 -0.70313,0.5625 -1.54688,1.45312 -0.42187,0.51563 -0.9375,1.07813 -0.46875,0.51562 -1.03125,1.125 -0.75,0.32812 -1.78125,0.89062 -1.03125,0.51563 -2.4375,1.26563 h -0.42187 q -0.46875,0 -0.75,-0.1875 -0.23438,-0.23438 -0.23438,-0.70313 0,-1.03125 4.40625,-4.96875 4.45313,-3.98437 4.45313,-5.20312 -0.42188,-1.21875 -1.17188,-2.57813 -0.70312,-1.40625 -1.78125,-3 l -0.60937,0.1875 q -0.28125,0.28125 -0.70313,0.75 -0.42187,0.42188 -1.03125,0.98438 -0.70312,0.84375 -1.82812,1.92187 -1.07813,1.03125 -2.67188,2.53125 -0.5625,0.28125 -1.35937,0.84375 -0.75,0.51563 -1.6875,1.3125 -0.1875,-0.70312 -0.65625,-1.73437 -0.46875,-1.03125 -1.21875,-2.57813 z m 27.14062,-16.78125 q -0.28125,0 -0.60937,0.1875 -0.28125,0.14063 -0.65625,0.5625 -0.42188,0.46875 -1.07813,1.07813 -0.32812,0.14062 -0.79687,0.375 -0.42188,0.23437 -0.98438,0.5625 -0.84375,0.79687 -2.10937,1.96875 -1.21875,1.17187 -2.95313,2.67187 v 0.32813 q -0.0937,0.46875 0.14063,1.125 0.23437,0.65625 0.65625,1.54687 0.46875,1.07813 0.84375,1.59375 0.375,0.46875 0.70312,0.46875 1.73438,-0.84375 4.78125,-5.4375 3.04688,-4.59375 3.04688,-6.14062 0,-0.42188 -0.23438,-0.65625 -0.23437,-0.23438 -0.75,-0.23438 z" />
            </g>
          </g>
        </g>
      </g>
    </g>
  </g>
</svg>
